<mxfile host="app.diagrams.net" modified="2023-06-09T13:51:55.593Z" agent="Mozilla/5.0 (Windows NT 10.0; Win64; x64) AppleWebKit/537.36 (KHTML, like Gecko) Chrome/114.0.0.0 Safari/537.36" etag="ozABuo3nFpWrYj3E5MSh" version="21.3.7" type="device">
  <diagram name="Page-1" id="8bdfhOoc8heKDKq4mjkj">
    <mxGraphModel dx="281" dy="506" grid="1" gridSize="10" guides="1" tooltips="1" connect="1" arrows="1" fold="1" page="1" pageScale="1" pageWidth="850" pageHeight="1100" math="0" shadow="0">
      <root>
        <mxCell id="0" />
        <mxCell id="1" parent="0" />
        <mxCell id="uDWEl7AuSHenKE2JgjnH-28" style="edgeStyle=orthogonalEdgeStyle;rounded=0;orthogonalLoop=1;jettySize=auto;html=1;exitX=1;exitY=0.5;exitDx=0;exitDy=0;" edge="1" parent="1" source="uDWEl7AuSHenKE2JgjnH-1" target="uDWEl7AuSHenKE2JgjnH-29">
          <mxGeometry relative="1" as="geometry">
            <mxPoint x="640" y="205" as="targetPoint" />
          </mxGeometry>
        </mxCell>
        <mxCell id="uDWEl7AuSHenKE2JgjnH-36" style="edgeStyle=orthogonalEdgeStyle;rounded=0;orthogonalLoop=1;jettySize=auto;html=1;exitX=1;exitY=0;exitDx=0;exitDy=0;entryX=0.002;entryY=0.673;entryDx=0;entryDy=0;entryPerimeter=0;" edge="1" parent="1" source="uDWEl7AuSHenKE2JgjnH-1" target="uDWEl7AuSHenKE2JgjnH-34">
          <mxGeometry relative="1" as="geometry" />
        </mxCell>
        <mxCell id="uDWEl7AuSHenKE2JgjnH-1" value="Smart Watch" style="rounded=0;whiteSpace=wrap;html=1;" vertex="1" parent="1">
          <mxGeometry x="425" y="130" width="170" height="150" as="geometry" />
        </mxCell>
        <mxCell id="uDWEl7AuSHenKE2JgjnH-3" value="" style="endArrow=classic;html=1;rounded=0;entryX=0.011;entryY=0.895;entryDx=0;entryDy=0;entryPerimeter=0;" edge="1" parent="1" source="uDWEl7AuSHenKE2JgjnH-20" target="uDWEl7AuSHenKE2JgjnH-1">
          <mxGeometry width="50" height="50" relative="1" as="geometry">
            <mxPoint x="330" y="250" as="sourcePoint" />
            <mxPoint x="410" y="250" as="targetPoint" />
            <Array as="points" />
          </mxGeometry>
        </mxCell>
        <mxCell id="uDWEl7AuSHenKE2JgjnH-4" value="" style="endArrow=classic;html=1;rounded=0;" edge="1" parent="1" source="uDWEl7AuSHenKE2JgjnH-19">
          <mxGeometry width="50" height="50" relative="1" as="geometry">
            <mxPoint x="330" y="220" as="sourcePoint" />
            <mxPoint x="430" y="200" as="targetPoint" />
            <Array as="points" />
          </mxGeometry>
        </mxCell>
        <mxCell id="uDWEl7AuSHenKE2JgjnH-13" value="" style="endArrow=classic;html=1;rounded=0;entryX=-0.004;entryY=0.319;entryDx=0;entryDy=0;entryPerimeter=0;" edge="1" parent="1" source="uDWEl7AuSHenKE2JgjnH-15" target="uDWEl7AuSHenKE2JgjnH-1">
          <mxGeometry width="50" height="50" relative="1" as="geometry">
            <mxPoint x="330" y="190" as="sourcePoint" />
            <mxPoint x="410" y="190" as="targetPoint" />
            <Array as="points" />
          </mxGeometry>
        </mxCell>
        <mxCell id="uDWEl7AuSHenKE2JgjnH-14" value="" style="endArrow=classic;html=1;rounded=0;entryX=-0.027;entryY=0.143;entryDx=0;entryDy=0;entryPerimeter=0;" edge="1" parent="1" source="uDWEl7AuSHenKE2JgjnH-23" target="uDWEl7AuSHenKE2JgjnH-1">
          <mxGeometry width="50" height="50" relative="1" as="geometry">
            <mxPoint x="330" y="160" as="sourcePoint" />
            <mxPoint x="410" y="160" as="targetPoint" />
            <Array as="points" />
          </mxGeometry>
        </mxCell>
        <mxCell id="uDWEl7AuSHenKE2JgjnH-15" value="heart beams" style="text;html=1;align=center;verticalAlign=middle;resizable=0;points=[];autosize=1;strokeColor=none;fillColor=none;fontFamily=Times New Roman;fontSize=10;" vertex="1" parent="1">
          <mxGeometry x="225" y="160" width="70" height="30" as="geometry" />
        </mxCell>
        <mxCell id="uDWEl7AuSHenKE2JgjnH-20" value="Tempreture" style="text;html=1;align=center;verticalAlign=middle;resizable=0;points=[];autosize=1;strokeColor=none;fillColor=none;fontFamily=Times New Roman;fontSize=10;" vertex="1" parent="1">
          <mxGeometry x="235" y="250" width="70" height="30" as="geometry" />
        </mxCell>
        <mxCell id="uDWEl7AuSHenKE2JgjnH-19" value="Movment" style="text;html=1;align=center;verticalAlign=middle;resizable=0;points=[];autosize=1;strokeColor=none;fillColor=none;fontFamily=Times New Roman;fontSize=10;" vertex="1" parent="1">
          <mxGeometry x="245" y="190" width="60" height="30" as="geometry" />
        </mxCell>
        <mxCell id="uDWEl7AuSHenKE2JgjnH-23" value="&lt;font face=&quot;Times New Roman&quot;&gt;&lt;span style=&quot;font-size: 11px;&quot;&gt;Time and Date&lt;/span&gt;&lt;/font&gt;" style="text;html=1;align=center;verticalAlign=middle;resizable=0;points=[];autosize=1;strokeColor=none;fillColor=none;" vertex="1" parent="1">
          <mxGeometry x="205" y="120" width="90" height="30" as="geometry" />
        </mxCell>
        <mxCell id="uDWEl7AuSHenKE2JgjnH-27" value="" style="edgeStyle=orthogonalEdgeStyle;rounded=0;orthogonalLoop=1;jettySize=auto;html=1;exitX=1;exitY=0.25;exitDx=0;exitDy=0;" edge="1" parent="1" source="uDWEl7AuSHenKE2JgjnH-1" target="uDWEl7AuSHenKE2JgjnH-26">
          <mxGeometry relative="1" as="geometry">
            <mxPoint x="670" y="178" as="targetPoint" />
            <mxPoint x="570" y="178" as="sourcePoint" />
          </mxGeometry>
        </mxCell>
        <mxCell id="uDWEl7AuSHenKE2JgjnH-26" value="heart rate" style="text;html=1;align=center;verticalAlign=middle;resizable=0;points=[];autosize=1;strokeColor=none;fillColor=none;" vertex="1" parent="1">
          <mxGeometry x="650" y="160" width="70" height="30" as="geometry" />
        </mxCell>
        <mxCell id="uDWEl7AuSHenKE2JgjnH-29" value="tempraure rate" style="text;html=1;align=center;verticalAlign=middle;resizable=0;points=[];autosize=1;strokeColor=none;fillColor=none;" vertex="1" parent="1">
          <mxGeometry x="660" y="190" width="100" height="30" as="geometry" />
        </mxCell>
        <mxCell id="uDWEl7AuSHenKE2JgjnH-32" value="" style="edgeStyle=orthogonalEdgeStyle;rounded=0;orthogonalLoop=1;jettySize=auto;html=1;exitX=1;exitY=0.75;exitDx=0;exitDy=0;" edge="1" parent="1" source="uDWEl7AuSHenKE2JgjnH-1" target="uDWEl7AuSHenKE2JgjnH-31">
          <mxGeometry relative="1" as="geometry">
            <mxPoint x="660" y="233" as="targetPoint" />
            <mxPoint x="570" y="233" as="sourcePoint" />
          </mxGeometry>
        </mxCell>
        <mxCell id="uDWEl7AuSHenKE2JgjnH-31" value="watch display" style="text;html=1;align=center;verticalAlign=middle;resizable=0;points=[];autosize=1;strokeColor=none;fillColor=none;" vertex="1" parent="1">
          <mxGeometry x="655" y="230" width="100" height="30" as="geometry" />
        </mxCell>
        <mxCell id="uDWEl7AuSHenKE2JgjnH-34" value="calories and steps rate" style="text;html=1;align=center;verticalAlign=middle;resizable=0;points=[];autosize=1;strokeColor=none;fillColor=none;" vertex="1" parent="1">
          <mxGeometry x="635" y="120" width="140" height="30" as="geometry" />
        </mxCell>
        <mxCell id="uDWEl7AuSHenKE2JgjnH-37" value="" style="endArrow=classic;html=1;rounded=0;exitX=1.055;exitY=0.647;exitDx=0;exitDy=0;exitPerimeter=0;entryX=0.015;entryY=0.628;entryDx=0;entryDy=0;entryPerimeter=0;" edge="1" parent="1" source="uDWEl7AuSHenKE2JgjnH-38" target="uDWEl7AuSHenKE2JgjnH-1">
          <mxGeometry width="50" height="50" relative="1" as="geometry">
            <mxPoint x="295" y="230" as="sourcePoint" />
            <mxPoint x="410" y="234" as="targetPoint" />
            <Array as="points" />
          </mxGeometry>
        </mxCell>
        <mxCell id="uDWEl7AuSHenKE2JgjnH-38" value="&lt;font style=&quot;font-size: 11px;&quot; face=&quot;Times New Roman&quot;&gt;Power source&lt;/font&gt;" style="text;html=1;align=center;verticalAlign=middle;resizable=0;points=[];autosize=1;strokeColor=none;fillColor=none;" vertex="1" parent="1">
          <mxGeometry x="230" y="220" width="80" height="30" as="geometry" />
        </mxCell>
      </root>
    </mxGraphModel>
  </diagram>
</mxfile>
